GIL01_xslow2_RRA_states
nRows=5
nColumns=47

# SIMM Motion File Header:
name GIL01_xslow2_RRA_states
datacolumns 47
datarows 5
otherdata 1
range 1.30732999999996680000 1.30932999999996660000
endheader
time	pelvis_tx	pelvis_ty	pelvis_tz	pelvis_tilt	pelvis_list	pelvis_rotation	hip_flexion_r	hip_adduction_r	hip_rotation_r	knee_angle_r	ankle_angle_r	subtalar_angle_r	mtp_angle_r	hip_flexion_l	hip_adduction_l	hip_rotation_l	knee_angle_l	ankle_angle_l	subtalar_angle_l	mtp_angle_l	lumbar_extension	lumbar_bending	lumbar_rotation	pelvis_tx_u	pelvis_ty_u	pelvis_tz_u	pelvis_tilt_u	pelvis_list_u	pelvis_rotation_u	hip_flexion_r_u	hip_adduction_r_u	hip_rotation_r_u	knee_angle_r_u	ankle_angle_r_u	subtalar_angle_r_u	mtp_angle_r_u	hip_flexion_l_u	hip_adduction_l_u	hip_rotation_l_u	knee_angle_l_u	ankle_angle_l_u	subtalar_angle_l_u	mtp_angle_l_u	lumbar_extension_u	lumbar_bending_u	lumbar_rotation_u
      1.30732999999996680000	      1.33155535536058970000	      0.81211264633350289000	     -0.20280498297938812000	     -2.18349004794140630000	      0.21989149248838663000	      2.48939269377174450000	      4.30488318917395320000	      3.44263921048138850000	     -2.49549394140584010000	     -3.87509008064371980000	      0.92429517942856387000	     -0.00000000000000931281	     -0.00000000000007289791	     19.40054556055052600000	     -2.12448842369751660000	     -1.99499324729899660000	    -41.42588426186036100000	      3.60645297174396040000	     -0.00000000000007361473	     -0.00000000000038752964	     -0.67415067112880145000	      0.08159912129560682700	      1.98098863470996010000	      0.49441866006886082000	     -0.01228939483614973700	      0.07234182236607822300	      4.39675295709462780000	     12.35512447724266300000	    -27.16277734899353600000	    -49.64879374415612300000	     -4.28897186353707570000	     -7.01628756866883570000	     11.13079304044369200000	     28.72478200561123500000	     -0.00000000000006153953	     -0.00000000000009309768	     38.08244491014597300000	     23.39304981898427000000	     26.86140455668926900000	    188.46949427792785000000	     39.92895673753594100000	     -0.00000000000023525812	     -0.00000000000010055988	     -7.93447067419592320000	    -17.25172348687482300000	     12.91931634485114700000
      1.30782999999996670000	      1.33180260193416690000	      0.81210639729536305000	     -0.20276888576710092000	     -2.18128836656367220000	      0.22606201458839806000	      2.47578594043481240000	      4.28003790397021080000	      3.44049976031842240000	     -2.49900809554827590000	     -3.86949950225883170000	      0.93866439685176717000	     -0.00000000000000934416	     -0.00000000000007294633	     19.41952341126087200000	     -2.11282728385315720000	     -1.98166846237392290000	    -41.33150061660161600000	      3.62628684674480620000	     -0.00000000000007373245	     -0.00000000000038758010	     -0.67811142094786381000	      0.07300229934114481300	      1.98745057889708510000	      0.49456789676561635000	     -0.01270662625737297400	      0.07204680450770883900	      4.40989703096383500000	     12.32695192580908000000	    -27.26421330617248600000	    -49.73216463930381800000	     -4.26889508577956710000	     -7.04021786995638440000	     11.23128155776276000000	     28.75202050393926700000	     -0.00000000000006690450	     -0.00000000000009444402	     37.82917754016210700000	     23.25145237083678800000	     26.43717746951443100000	    189.06427795541347000000	     39.40645615344571000000	     -0.00000000000023542202	     -0.00000000000010035323	     -7.90835886105754240000	    -17.13549104571525900000	     12.92832678405357800000
      1.30832999999996670000	      1.33204992352047700000	      0.81209993983653084000	     -0.20273293639758186000	     -2.17908022668907940000	      0.23221843406593204000	      2.46212850335273180000	      4.25515120679023440000	      3.43837024867833650000	     -2.50253403849452290000	     -3.86385904304191290000	      0.95304727726942939000	     -0.00000000000000937503	     -0.00000000000007299020	     19.43837495900092400000	     -2.10123702606281260000	     -1.96855663047478480000	    -41.23682079564418500000	      3.64585934313467510000	     -0.00000000000007385031	     -0.00000000000038763048	     -0.68205886000072657000	      0.06446370173280416300	      1.99391682759107520000	      0.49471871200365641000	     -0.01312308145062150500	      0.07175045080047035000	      4.42258641291031920000	     12.29871731940255900000	    -27.36551182155385900000	    -49.81444187655495900000	     -4.24921864918341010000	     -7.06342349596932720000	     11.33030612086330400000	     28.77972300750288100000	     -0.00000000000005867275	     -0.00000000000008336371	     37.57723595024537400000	     23.10952668149613800000	     26.00958702238581600000	    189.65419045893680000000	     38.88344765389172900000	     -0.00000000000023621375	     -0.00000000000010093037	     -7.88122714047809760000	    -17.01882984798873400000	     12.93653380075925000000
      1.30882999999996660000	      1.33229732091084880000	      0.81209327434780532000	     -0.20269713552854685000	     -2.17686585459306590000	      0.23836072171633113000	      2.44842045323137740000	      4.23022364379997740000	      3.43625047561081940000	     -2.50607139192020070000	     -3.85816944153399440000	      0.96744419609189503000	     -0.00000000000000940579	     -0.00000000000007303326	     19.45710086697243200000	     -2.08971781176030460000	     -1.95565942644376120000	    -41.14184723933943400000	      3.66517021159536370000	     -0.00000000000007396843	     -0.00000000000038768108	     -0.68599247892353132000	      0.05598353669874944100	      2.00038697857739050000	      0.49487111513177184000	     -0.01353873272507253500	      0.07145282400054935000	      4.43482914487099310000	     12.27042160298555200000	    -27.46666253949114300000	    -49.89562878013595800000	     -4.22993860557131020000	     -7.08586635166593660000	     11.42785810071282000000	     28.80788255908328900000	     -0.00000000000006380674	     -0.00000000000009436412	     37.32661319467211300000	     22.96727364442144600000	     25.57869060923481900000	    190.23922307967010000000	     38.35994299382929300000	     -0.00000000000023591576	     -0.00000000000010181402	     -7.85308048687696920000	    -16.90176556000236700000	     12.94393612123020000000
      1.30932999999996660000	      1.33254479490183590000	      0.81208640124246334000	     -0.20266148377533641000	     -2.17464547061123660000	      0.24448884562785966000	      2.43466186704646730000	      4.20525575921503240000	      3.43414024459647620000	     -2.50961977146949700000	     -3.85243143219252550000	      0.98185523331335844000	     -0.00000000000000943676	     -0.00000000000007308549	     19.47570179070907100000	     -2.07826980684348280000	     -1.94297848122888190000	    -41.04658238716191200000	      3.68421920537991050000	     -0.00000000000007408626	     -0.00000000000038773218	     -0.68991177219195721000	      0.04756199913003869600	      2.00686062949301160000	      0.49502511543099281000	     -0.01395355152242208100	      0.07115398702338048000	      4.44663346109391000000	     12.24206566511137100000	    -27.56765573634004000000	    -49.97572834339411000000	     -4.21105145455883620000	     -7.10750892207534690000	     11.52392639579816300000	     28.83648267209703800000	     -0.00000000000005927543	     -0.00000000000010994383	     37.07730182999765100000	     22.82469422408897200000	     25.14454654298615200000	    190.81936739020952000000	     37.83595450441914200000	     -0.00000000000023538523	     -0.00000000000010145322	     -7.82392409468781750000	    -16.78432365784925700000	     12.95053312037765500000
